<?xml version="1.0" standalone="no"?><!DOCTYPE svg PUBLIC "-//W3C//DTD SVG 1.1//EN" "http://www.w3.org/Graphics/SVG/1.1/DTD/svg11.dtd"><svg t="1705833282148" class="icon" viewBox="0 0 1043 1024" version="1.1" xmlns="http://www.w3.org/2000/svg" p-id="3206" xmlns:xlink="http://www.w3.org/1999/xlink" width="101.85546875" height="100"><path d="M3.795102 0h1039.753846v1024H3.795102z" fill="#ffffff" fill-opacity="0" p-id="3207"></path><path d="M640.250486 291.84H385.825871a94.129231 94.129231 0 0 0-94.523077 92.947692v250.88a94.129231 94.129231 0 0 0 94.523077 92.947693h254.424615a93.735385 93.735385 0 0 0 94.523077-92.947693V384.787692a93.735385 93.735385 0 0 0-94.523077-92.947692z m20.48 343.827692a20.086154 20.086154 0 0 1-20.48 19.692308H385.825871a19.692308 19.692308 0 0 1-20.086154-19.692308V384.787692a19.692308 19.692308 0 0 1 20.086154-19.692307h254.424615a20.086154 20.086154 0 0 1 20.48 19.692307z" fill="#ffffff" p-id="3208"></path><path d="M985.259717 537.993846a36.627692 36.627692 0 1 0 0-72.861538h-111.852308V393.846154h111.852308a36.627692 36.627692 0 1 0 0-73.255385h-111.852308V185.107692a36.627692 36.627692 0 0 0-37.415384-36.627692h-139.815385V36.627692a37.415385 37.415385 0 0 0-74.436923 0v111.852308h-71.286154V36.627692a37.415385 37.415385 0 0 0-74.043077 0v111.852308h-71.68V36.627692a37.415385 37.415385 0 0 0-74.436923 0v111.852308H279.487409a39.384615 39.384615 0 0 0-27.569231 11.815385L161.333563 260.726154a35.052308 35.052308 0 0 0-9.452308 24.418461v36.627693H43.179717A36.627692 36.627692 0 1 0 43.179717 393.846154h109.883077v70.498461H43.179717a36.627692 36.627692 0 1 0 0 73.255385h109.883077v70.104615H43.179717a36.627692 36.627692 0 1 0 0 73.255385h109.883077v139.421538a36.627692 36.627692 0 0 0 37.021538 36.627693h140.209231v115.790769a37.415385 37.415385 0 0 0 74.436923 0v-115.003077H476.410486v115.790769a37.415385 37.415385 0 0 0 74.436923 0v-115.790769h71.286154v115.790769a37.415385 37.415385 0 0 0 74.436923 0v-115.790769h39.384616a39.384615 39.384615 0 0 0 26.387692-10.633846L862.379717 748.307692a35.446154 35.446154 0 0 0 11.027692-25.6v-39.384615h111.852308a36.627692 36.627692 0 1 0 0-73.255385h-111.852308v-72.073846zM227.105871 784.541538V298.929231l70.892307-78.769231h500.972308v485.218462l-78.769231 78.76923z" fill="#ffffff" p-id="3209"></path></svg>